<svg xmlns="http://www.w3.org/2000/svg" xmlns:xlink="http://www.w3.org/1999/xlink" width="500" zoomAndPan="magnify" viewBox="0 0 375 374.999991" height="500" preserveAspectRatio="xMidYMid meet" version="1.0"><defs><g/><clipPath id="4eb6c2c86d"><path d="M 1.351562 95 L 16 95 L 16 111 L 1.351562 111 Z M 1.351562 95 " clip-rule="nonzero"/></clipPath><clipPath id="bd162d867f"><path d="M 358 95 L 373.351562 95 L 373.351562 111 L 358 111 Z M 358 95 " clip-rule="nonzero"/></clipPath><clipPath id="2503302395"><path d="M 124 37.5 L 173 37.5 L 173 188 L 124 188 Z M 124 37.5 " clip-rule="nonzero"/></clipPath><clipPath id="7860e6a63b"><path d="M 192 37.5 L 251 37.5 L 251 189 L 192 189 Z M 192 37.5 " clip-rule="nonzero"/></clipPath></defs><path fill="#80cc28" d="M 47.839844 79.875 L 63.152344 113.671875 C 81.867188 73.40625 40.660156 60.625 40.660156 60.625 L 40.695312 60.722656 C 39.902344 62.023438 18.757812 97.574219 58.09375 115.421875 L 47.839844 79.875 " fill-opacity="1" fill-rule="nonzero"/><path fill="#80cc28" d="M 22.808594 121.136719 L 50.742188 126.121094 C 24.480469 147.699219 7.191406 119.449219 7.191406 119.449219 L 7.269531 119.457031 C 8.082031 118.621094 30.390625 96.125 51.074219 122.019531 L 22.808594 121.136719 " fill-opacity="1" fill-rule="nonzero"/><path fill="#80cc28" d="M 72.230469 128.34375 C 72.230469 132.332031 69.011719 135.558594 65.039062 135.558594 C 61.0625 135.558594 57.84375 132.332031 57.84375 128.34375 C 57.84375 124.363281 61.0625 121.132812 65.039062 121.132812 C 69.011719 121.132812 72.230469 124.363281 72.230469 128.34375 " fill-opacity="1" fill-rule="nonzero"/><g clip-path="url(#4eb6c2c86d)"><path fill="#80cc28" d="M 8.535156 110.253906 C 4.5625 110.253906 1.339844 107.023438 1.339844 103.039062 C 1.339844 99.058594 4.5625 95.824219 8.535156 95.824219 C 12.507812 95.824219 15.730469 99.058594 15.730469 103.039062 C 15.730469 107.023438 12.507812 110.253906 8.535156 110.253906 " fill-opacity="1" fill-rule="nonzero"/></g><path fill="#80cc28" d="M 78.222656 73.390625 C 80.371094 75.542969 80.371094 79.039062 78.222656 81.191406 C 76.074219 83.347656 72.59375 83.347656 70.445312 81.191406 C 68.296875 79.039062 68.296875 75.542969 70.445312 73.390625 C 72.59375 71.238281 76.074219 71.238281 78.222656 73.390625 " fill-opacity="1" fill-rule="nonzero"/><path fill="#80cc28" d="M 31.09375 95.480469 C 32.105469 96.496094 32.105469 98.136719 31.09375 99.15625 C 30.082031 100.167969 28.441406 100.167969 27.429688 99.15625 C 26.417969 98.136719 26.417969 96.496094 27.429688 95.480469 C 28.441406 94.464844 30.082031 94.464844 31.09375 95.480469 " fill-opacity="1" fill-rule="nonzero"/><path fill="#80cc28" d="M 16.105469 137.089844 C 17.980469 137.089844 19.5 138.613281 19.5 140.492188 C 19.5 142.371094 17.980469 143.894531 16.105469 143.894531 C 14.234375 143.894531 12.710938 142.371094 12.710938 140.492188 C 12.710938 138.613281 14.234375 137.089844 16.105469 137.089844 " fill-opacity="1" fill-rule="nonzero"/><path fill="#80cc28" d="M 326.839844 79.875 L 311.527344 113.671875 C 292.8125 73.402344 334.019531 60.625 334.019531 60.625 L 333.984375 60.71875 C 334.777344 62.019531 355.921875 97.574219 316.582031 115.417969 L 326.839844 79.875 " fill-opacity="1" fill-rule="nonzero"/><path fill="#80cc28" d="M 351.871094 121.136719 L 323.9375 126.117188 C 350.199219 147.699219 367.488281 119.449219 367.488281 119.449219 L 367.410156 119.457031 C 366.597656 118.621094 344.289062 96.125 323.605469 122.019531 L 351.871094 121.136719 " fill-opacity="1" fill-rule="nonzero"/><path fill="#80cc28" d="M 302.449219 128.34375 C 302.449219 132.332031 305.671875 135.558594 309.640625 135.558594 C 313.613281 135.558594 316.835938 132.332031 316.835938 128.34375 C 316.835938 124.363281 313.613281 121.132812 309.640625 121.132812 C 305.671875 121.132812 302.449219 124.363281 302.449219 128.34375 " fill-opacity="1" fill-rule="nonzero"/><g clip-path="url(#bd162d867f)"><path fill="#80cc28" d="M 366.140625 110.253906 C 370.113281 110.253906 373.335938 107.023438 373.335938 103.042969 C 373.335938 99.058594 370.113281 95.828125 366.140625 95.828125 C 362.171875 95.828125 358.949219 99.058594 358.949219 103.042969 C 358.949219 107.023438 362.171875 110.253906 366.140625 110.253906 " fill-opacity="1" fill-rule="nonzero"/></g><path fill="#80cc28" d="M 296.457031 73.390625 C 294.308594 75.542969 294.308594 79.039062 296.457031 81.191406 C 298.601562 83.347656 302.085938 83.347656 304.234375 81.191406 C 306.382812 79.039062 306.382812 75.542969 304.234375 73.390625 C 302.085938 71.238281 298.601562 71.238281 296.457031 73.390625 " fill-opacity="1" fill-rule="nonzero"/><path fill="#80cc28" d="M 343.585938 95.480469 C 342.570312 96.496094 342.570312 98.140625 343.585938 99.15625 C 344.59375 100.171875 346.238281 100.171875 347.246094 99.15625 C 348.261719 98.140625 348.261719 96.496094 347.246094 95.480469 C 346.238281 94.46875 344.59375 94.46875 343.585938 95.480469 " fill-opacity="1" fill-rule="nonzero"/><path fill="#80cc28" d="M 358.570312 137.089844 C 356.695312 137.089844 355.175781 138.613281 355.175781 140.492188 C 355.175781 142.371094 356.695312 143.898438 358.570312 143.898438 C 360.445312 143.898438 361.964844 142.371094 361.964844 140.492188 C 361.964844 138.613281 360.445312 137.089844 358.570312 137.089844 " fill-opacity="1" fill-rule="nonzero"/><g clip-path="url(#2503302395)"><path fill="#f68712" d="M 142.214844 151.03125 L 140.398438 180.683594 C 145.644531 183.371094 151.128906 185.613281 156.800781 187.363281 L 154.574219 151.03125 C 153.820312 138.710938 157.730469 126.367188 166.152344 117.367188 C 170.230469 113.007812 172.726562 107.144531 172.726562 100.695312 L 172.726562 37.566406 L 165.773438 37.566406 L 165.773438 91.785156 C 165.773438 93.710938 164.21875 95.269531 162.300781 95.269531 C 160.378906 95.269531 158.824219 93.710938 158.824219 91.785156 L 158.824219 37.566406 L 151.871094 37.566406 L 151.871094 91.785156 C 151.871094 93.710938 150.3125 95.269531 148.394531 95.269531 C 146.476562 95.269531 144.917969 93.710938 144.917969 91.785156 L 144.917969 37.566406 L 137.964844 37.566406 L 137.964844 91.785156 C 137.964844 93.710938 136.410156 95.269531 134.488281 95.269531 C 132.570312 95.269531 131.015625 93.710938 131.015625 91.785156 L 131.015625 37.566406 L 124.0625 37.566406 L 124.0625 100.695312 C 124.0625 107.144531 126.5625 113.007812 130.640625 117.367188 C 139.058594 126.367188 142.96875 138.710938 142.214844 151.03125 " fill-opacity="1" fill-rule="nonzero"/></g><g clip-path="url(#7860e6a63b)"><path fill="#f68712" d="M 215.644531 150.285156 L 213.296875 188.660156 C 219.015625 187.183594 224.574219 185.226562 229.90625 182.808594 L 227.914062 150.285156 C 227.199219 138.644531 230.96875 127.097656 238.707031 118.390625 C 245.921875 110.273438 250.617188 97.101562 250.617188 82.234375 C 250.617188 57.566406 237.707031 37.566406 221.777344 37.566406 C 205.851562 37.566406 192.941406 57.566406 192.941406 82.234375 C 192.941406 97.101562 197.632812 110.273438 204.851562 118.390625 C 212.589844 127.097656 216.359375 138.644531 215.644531 150.285156 " fill-opacity="1" fill-rule="nonzero"/></g><path fill="#f68712" d="M 298.460938 145.929688 C 298.367188 145.882812 298.273438 145.832031 298.175781 145.785156 C 291.128906 142.183594 282.433594 144.324219 278.027344 150.914062 C 256.578125 182.992188 221.957031 199.03125 187.339844 199.03125 C 152.722656 199.03125 118.101562 182.992188 96.652344 150.914062 C 92.246094 144.324219 83.550781 142.183594 76.503906 145.785156 C 76.40625 145.832031 76.3125 145.882812 76.21875 145.929688 C 67.835938 150.214844 64.984375 160.890625 70.214844 168.730469 C 97.890625 210.214844 142.617188 230.957031 187.339844 230.957031 C 232.0625 230.957031 276.785156 210.214844 304.464844 168.730469 C 309.691406 160.890625 306.84375 150.214844 298.460938 145.929688 " fill-opacity="1" fill-rule="nonzero"/><g fill="#19ab14" fill-opacity="1"><g transform="translate(131.151679, 285.692227)"><g><path d="M 16.871094 0.542969 C 25.734375 0.542969 31.371094 -2.605469 31.371094 -7.8125 C 31.371094 -18.933594 8.242188 -13.761719 8.242188 -19.671875 C 8.242188 -22.003906 12.128906 -22.625 16.523438 -22.625 C 21.109375 -22.625 25.773438 -21.5 28.652344 -19.828125 L 28.652344 -25.582031 C 25.582031 -26.863281 20.722656 -27.757812 16.289062 -27.757812 C 8.398438 -27.757812 1.984375 -24.996094 1.984375 -19.75 C 1.984375 -8.515625 25.074219 -13.449219 25.074219 -7.773438 C 25.074219 -5.363281 21.691406 -4.546875 16.753906 -4.546875 C 11.15625 -4.546875 5.792969 -5.792969 1.710938 -8.398438 L 1.4375 -2.214844 C 5.675781 -0.542969 12.167969 0.542969 16.871094 0.542969 Z M 16.871094 0.542969 "/></g></g></g><g fill="#19ab14" fill-opacity="1"><g transform="translate(164.816895, 285.692227)"><g><path d="M 3.148438 0 L 30.554688 0 L 31.683594 -6.179688 C 30.554688 -5.558594 28.808594 -5.171875 25.734375 -5.171875 L 9.914062 -5.171875 L 9.914062 -11.117188 L 22.429688 -11.117188 C 24.296875 -11.117188 25.582031 -11.039062 26.511719 -10.886719 L 26.511719 -16.40625 C 25.582031 -16.25 24.296875 -16.171875 22.429688 -16.171875 L 9.914062 -16.171875 L 9.914062 -22.042969 L 25.464844 -22.042969 C 28.144531 -22.042969 29.855469 -21.769531 30.75 -21.34375 L 29.777344 -27.214844 L 3.148438 -27.214844 C 3.578125 -25.695312 3.886719 -23.324219 3.886719 -20.683594 L 3.886719 -6.53125 C 3.886719 -3.886719 3.617188 -1.515625 3.148438 0 Z M 3.148438 0 "/></g></g></g><g fill="#19ab14" fill-opacity="1"><g transform="translate(198.948599, 285.692227)"><g><path d="M 3.148438 0 L 10.613281 0 C 10.222656 -1.398438 9.914062 -4.003906 9.914062 -6.6875 L 9.914062 -19.632812 L 10.222656 -19.632812 L 21.265625 0 L 23.519531 0 L 34.5625 -19.632812 L 34.988281 -19.632812 L 34.988281 -6.6875 C 34.988281 -4.003906 34.675781 -1.398438 34.289062 0 L 41.753906 0 C 41.324219 -1.515625 41.054688 -3.886719 41.054688 -6.53125 L 41.054688 -20.683594 C 41.054688 -23.324219 41.285156 -25.695312 41.753906 -27.214844 L 33.820312 -27.214844 L 26.125 -13.414062 C 24.84375 -11.078125 23.871094 -9.292969 22.742188 -6.765625 L 22.316406 -6.765625 C 21.148438 -9.332031 20.175781 -11.195312 18.933594 -13.414062 L 11.273438 -27.214844 L 3.148438 -27.214844 C 3.617188 -25.695312 3.847656 -23.324219 3.847656 -20.683594 L 3.847656 -6.53125 C 3.847656 -3.886719 3.578125 -1.515625 3.148438 0 Z M 3.148438 0 "/></g></g></g><g fill="#19ab14" fill-opacity="1"><g transform="translate(13.015979, 326.307476)"><g><path d="M 3.148438 0 L 18.855469 0 C 28.417969 0 34.675781 -5.132812 34.675781 -13.605469 C 34.675781 -22.082031 28.417969 -27.214844 18.855469 -27.214844 L 3.148438 -27.214844 C 3.578125 -25.695312 3.886719 -23.324219 3.886719 -20.683594 L 3.886719 -6.53125 C 3.886719 -3.886719 3.617188 -1.515625 3.148438 0 Z M 9.914062 -5.324219 L 9.914062 -21.925781 L 18.425781 -21.925781 C 24.296875 -21.925781 28.457031 -18.816406 28.457031 -13.605469 C 28.457031 -8.398438 24.296875 -5.324219 18.425781 -5.324219 Z M 9.914062 -5.324219 "/></g></g></g><g fill="#19ab14" fill-opacity="1"><g transform="translate(50.218747, 326.307476)"><g><path d="M 3.148438 0 L 30.554688 0 L 31.683594 -6.179688 C 30.554688 -5.558594 28.808594 -5.171875 25.734375 -5.171875 L 9.914062 -5.171875 L 9.914062 -11.117188 L 22.429688 -11.117188 C 24.296875 -11.117188 25.582031 -11.039062 26.511719 -10.886719 L 26.511719 -16.40625 C 25.582031 -16.25 24.296875 -16.171875 22.429688 -16.171875 L 9.914062 -16.171875 L 9.914062 -22.042969 L 25.464844 -22.042969 C 28.144531 -22.042969 29.855469 -21.769531 30.75 -21.34375 L 29.777344 -27.214844 L 3.148438 -27.214844 C 3.578125 -25.695312 3.886719 -23.324219 3.886719 -20.683594 L 3.886719 -6.53125 C 3.886719 -3.886719 3.617188 -1.515625 3.148438 0 Z M 3.148438 0 "/></g></g></g><g fill="#19ab14" fill-opacity="1"><g transform="translate(84.350452, 326.307476)"><g><path d="M 16.871094 0.542969 C 25.734375 0.542969 31.371094 -2.605469 31.371094 -7.8125 C 31.371094 -18.933594 8.242188 -13.761719 8.242188 -19.671875 C 8.242188 -22.003906 12.128906 -22.625 16.523438 -22.625 C 21.109375 -22.625 25.773438 -21.5 28.652344 -19.828125 L 28.652344 -25.582031 C 25.582031 -26.863281 20.722656 -27.757812 16.289062 -27.757812 C 8.398438 -27.757812 1.984375 -24.996094 1.984375 -19.75 C 1.984375 -8.515625 25.074219 -13.449219 25.074219 -7.773438 C 25.074219 -5.363281 21.691406 -4.546875 16.753906 -4.546875 C 11.15625 -4.546875 5.792969 -5.792969 1.710938 -8.398438 L 1.4375 -2.214844 C 5.675781 -0.542969 12.167969 0.542969 16.871094 0.542969 Z M 16.871094 0.542969 "/></g></g></g><g fill="#19ab14" fill-opacity="1"><g transform="translate(118.015664, 326.307476)"><g><path d="M 3.148438 0 L 10.613281 0 C 10.148438 -1.515625 9.914062 -3.808594 9.914062 -6.414062 L 9.953125 -14.695312 L 10.261719 -14.695312 C 11.234375 -9.367188 15.824219 -6.957031 22.042969 -6.957031 C 28.496094 -6.957031 33.277344 -10.769531 33.277344 -17.261719 C 33.277344 -23.675781 27.875 -27.214844 20.566406 -27.214844 L 3.148438 -27.214844 C 3.578125 -25.695312 3.886719 -23.324219 3.886719 -20.683594 L 3.886719 -6.53125 C 3.886719 -3.886719 3.617188 -1.515625 3.148438 0 Z M 19.75 -11.894531 C 14.851562 -11.894531 9.992188 -14.65625 9.953125 -19.398438 L 9.953125 -22.042969 C 13.023438 -22.355469 16.132812 -22.394531 19.632812 -22.394531 C 24.453125 -22.394531 27.214844 -20.449219 27.214844 -17.261719 C 27.214844 -13.917969 23.714844 -11.894531 19.75 -11.894531 Z M 19.75 -11.894531 "/></g></g></g><g fill="#19ab14" fill-opacity="1"><g transform="translate(153.119236, 326.307476)"><g><path d="M 3.148438 0 L 30.554688 0 L 31.683594 -6.179688 C 30.554688 -5.558594 28.808594 -5.171875 25.734375 -5.171875 L 9.914062 -5.171875 L 9.914062 -11.117188 L 22.429688 -11.117188 C 24.296875 -11.117188 25.582031 -11.039062 26.511719 -10.886719 L 26.511719 -16.40625 C 25.582031 -16.25 24.296875 -16.171875 22.429688 -16.171875 L 9.914062 -16.171875 L 9.914062 -22.042969 L 25.464844 -22.042969 C 28.144531 -22.042969 29.855469 -21.769531 30.75 -21.34375 L 29.777344 -27.214844 L 3.148438 -27.214844 C 3.578125 -25.695312 3.886719 -23.324219 3.886719 -20.683594 L 3.886719 -6.53125 C 3.886719 -3.886719 3.617188 -1.515625 3.148438 0 Z M 3.148438 0 "/></g></g></g><g fill="#19ab14" fill-opacity="1"><g transform="translate(187.250945, 326.307476)"><g><path d="M 31.257812 0.582031 C 33.238281 0.582031 35.105469 -0.234375 36 -1.4375 L 35.726562 -8.164062 C 35.027344 -6.492188 34.09375 -5.441406 31.996094 -5.441406 C 27.71875 -5.441406 28.652344 -12.324219 20.488281 -12.324219 L 20.175781 -12.324219 L 20.175781 -12.632812 L 22.546875 -12.632812 C 28.808594 -12.632812 33.042969 -15.707031 33.042969 -20.097656 C 33.042969 -24.6875 28.535156 -27.214844 22.003906 -27.214844 L 3.1875 -27.214844 C 3.617188 -25.695312 3.886719 -23.324219 3.886719 -20.683594 L 3.886719 -6.53125 C 3.886719 -3.886719 3.617188 -1.554688 3.1875 0 L 10.652344 0 C 10.183594 -1.554688 9.953125 -3.65625 9.953125 -6.257812 L 9.953125 -10.300781 C 10.847656 -10.574219 13.917969 -10.652344 15.046875 -10.652344 C 26.203125 -10.652344 21.109375 0.582031 31.257812 0.582031 Z M 9.953125 -14.96875 L 9.953125 -21.964844 L 21.382812 -21.964844 C 24.726562 -21.964844 26.980469 -20.644531 26.980469 -18.464844 C 26.980469 -16.210938 24.6875 -14.96875 21.109375 -14.96875 Z M 9.953125 -14.96875 "/></g></g></g><g fill="#19ab14" fill-opacity="1"><g transform="translate(224.453718, 326.307476)"><g><path d="M 3.148438 0 L 18.855469 0 C 28.417969 0 34.675781 -5.132812 34.675781 -13.605469 C 34.675781 -22.082031 28.417969 -27.214844 18.855469 -27.214844 L 3.148438 -27.214844 C 3.578125 -25.695312 3.886719 -23.324219 3.886719 -20.683594 L 3.886719 -6.53125 C 3.886719 -3.886719 3.617188 -1.515625 3.148438 0 Z M 9.914062 -5.324219 L 9.914062 -21.925781 L 18.425781 -21.925781 C 24.296875 -21.925781 28.457031 -18.816406 28.457031 -13.605469 C 28.457031 -8.398438 24.296875 -5.324219 18.425781 -5.324219 Z M 9.914062 -5.324219 "/></g></g></g><g fill="#19ab14" fill-opacity="1"><g transform="translate(261.65649, 326.307476)"><g><path d="M 5.402344 -29.3125 L 8.667969 -29.3125 L 15.394531 -34.949219 L 10.417969 -34.949219 Z M 3.148438 0 L 10.613281 0 C 10.183594 -1.515625 9.914062 -3.886719 9.914062 -6.53125 L 9.914062 -20.683594 C 9.914062 -23.324219 10.183594 -25.695312 10.613281 -27.214844 L 3.148438 -27.214844 C 3.578125 -25.695312 3.847656 -23.324219 3.847656 -20.683594 L 3.847656 -6.53125 C 3.847656 -3.886719 3.617188 -1.515625 3.148438 0 Z M 3.148438 0 "/></g></g></g><g fill="#19ab14" fill-opacity="1"><g transform="translate(276.234448, 326.307476)"><g><path d="M 19.671875 0.542969 C 24.609375 0.542969 28.808594 -0.351562 31.957031 -1.828125 L 31.957031 -8.085938 C 29.3125 -6.027344 25.113281 -4.742188 20.761719 -4.742188 C 13.449219 -4.742188 7.851562 -7.890625 7.851562 -13.566406 C 7.851562 -19.128906 13.296875 -22.46875 20.292969 -22.46875 C 24.453125 -22.46875 28.183594 -21.226562 30.363281 -19.554688 L 30.867188 -25.386719 C 28.144531 -26.785156 24.027344 -27.757812 19.554688 -27.757812 C 9.640625 -27.757812 1.75 -22.664062 1.75 -13.566406 C 1.75 -4.433594 9.796875 0.542969 19.671875 0.542969 Z M 19.671875 0.542969 "/></g></g></g><g fill="#19ab14" fill-opacity="1"><g transform="translate(310.249535, 326.307476)"><g><path d="M 3.148438 0 L 10.613281 0 C 10.183594 -1.515625 9.914062 -3.886719 9.914062 -6.53125 L 9.914062 -20.683594 C 9.914062 -23.324219 10.183594 -25.695312 10.613281 -27.214844 L 3.148438 -27.214844 C 3.578125 -25.695312 3.847656 -23.324219 3.847656 -20.683594 L 3.847656 -6.53125 C 3.847656 -3.886719 3.617188 -1.515625 3.148438 0 Z M 3.148438 0 "/></g></g></g><g fill="#19ab14" fill-opacity="1"><g transform="translate(324.827493, 326.307476)"><g><path d="M 18.582031 0.542969 C 28.300781 0.542969 35.417969 -4.78125 35.417969 -13.605469 C 35.417969 -22.429688 28.300781 -27.757812 18.582031 -27.757812 C 8.863281 -27.757812 1.75 -22.429688 1.75 -13.605469 C 1.75 -4.78125 8.863281 0.542969 18.582031 0.542969 Z M 18.582031 -4.277344 C 12.480469 -4.277344 7.890625 -7.851562 7.890625 -13.605469 C 7.890625 -19.398438 12.480469 -22.9375 18.582031 -22.9375 C 24.6875 -22.9375 29.273438 -19.398438 29.273438 -13.605469 C 29.273438 -7.851562 24.6875 -4.277344 18.582031 -4.277344 Z M 18.582031 -4.277344 "/></g></g></g></svg>